<svg width="60" height="60" viewBox="0 0 60 60" fill="none" xmlns="http://www.w3.org/2000/svg">
<path d="M8.18965e-09 13.1245C8.18965e-09 11.6327 0.592632 10.2019 1.64752 9.14704C2.70242 8.09214 4.13316 7.49951 5.625 7.49951H39.375C40.8668 7.49951 42.2976 8.09214 43.3525 9.14704C44.4074 10.2019 45 11.6327 45 13.1245V18.7495H48.825C49.6678 18.7503 50.4996 18.9404 51.259 19.3058C52.0184 19.6712 52.686 20.2026 53.2125 20.8608L58.7662 27.7983C59.5653 28.7965 60.0005 30.0371 60 31.3158V39.3745C60 40.8664 59.4074 42.2971 58.3525 43.352C57.2976 44.4069 55.8668 44.9995 54.375 44.9995H52.5C52.5 46.9886 51.7098 48.8963 50.3033 50.3028C48.8968 51.7093 46.9891 52.4995 45 52.4995C43.0109 52.4995 41.1032 51.7093 39.6967 50.3028C38.2902 48.8963 37.5 46.9886 37.5 44.9995H18.75C18.7522 45.9992 18.5544 46.9892 18.1685 47.9114C17.7825 48.8336 17.216 49.6693 16.5024 50.3694C15.7888 51.0695 14.9425 51.6199 14.0131 51.9882C13.0837 52.3565 12.0901 52.5353 11.0906 52.514C10.0911 52.4928 9.106 52.2719 8.19311 51.8644C7.28023 51.457 6.45801 50.8711 5.77481 50.1413C5.0916 49.4115 4.56119 48.5525 4.21475 47.6147C3.86832 46.677 3.71286 45.6795 3.7575 44.6808C2.65893 44.2941 1.70746 43.576 1.03442 42.6255C0.361371 41.6751 -6.28198e-05 40.5391 8.18965e-09 39.3745L8.18965e-09 13.1245ZM4.8525 41.0845C5.5305 39.9745 6.48567 39.06 7.62412 38.4309C8.76257 37.8018 10.0451 37.4797 11.3457 37.4963C12.6463 37.513 13.9202 37.8678 15.0422 38.5258C16.1642 39.1838 17.0956 40.1225 17.745 41.2495H38.505C39.1646 40.1105 40.111 39.1642 41.25 38.5045V13.1245C41.25 12.6272 41.0525 12.1503 40.7008 11.7987C40.3492 11.4471 39.8723 11.2495 39.375 11.2495H5.625C5.12772 11.2495 4.65081 11.4471 4.29917 11.7987C3.94754 12.1503 3.75 12.6272 3.75 13.1245V39.3745C3.74971 39.7354 3.85357 40.0887 4.04914 40.3921C4.2447 40.6954 4.52365 40.9358 4.8525 41.0845ZM45 37.4995C46.3165 37.4995 47.6098 37.8461 48.7499 38.5044C49.89 39.1626 50.8368 40.1094 51.495 41.2495H54.375C54.8723 41.2495 55.3492 41.052 55.7008 40.7003C56.0525 40.3487 56.25 39.8718 56.25 39.3745V31.312C56.2492 30.8865 56.1038 30.4739 55.8375 30.142L50.2875 23.2045C50.1121 22.9849 49.8897 22.8075 49.6365 22.6855C49.3834 22.5635 49.106 22.4999 48.825 22.4995H45V37.4995ZM11.25 41.2495C10.2554 41.2495 9.30161 41.6446 8.59835 42.3479C7.89509 43.0511 7.5 44.005 7.5 44.9995C7.5 45.9941 7.89509 46.9479 8.59835 47.6512C9.30161 48.3544 10.2554 48.7495 11.25 48.7495C12.2446 48.7495 13.1984 48.3544 13.9017 47.6512C14.6049 46.9479 15 45.9941 15 44.9995C15 44.005 14.6049 43.0511 13.9017 42.3479C13.1984 41.6446 12.2446 41.2495 11.25 41.2495ZM45 41.2495C44.0054 41.2495 43.0516 41.6446 42.3484 42.3479C41.6451 43.0511 41.25 44.005 41.25 44.9995C41.25 45.9941 41.6451 46.9479 42.3484 47.6512C43.0516 48.3544 44.0054 48.7495 45 48.7495C45.9946 48.7495 46.9484 48.3544 47.6516 47.6512C48.3549 46.9479 48.75 45.9941 48.75 44.9995C48.75 44.005 48.3549 43.0511 47.6516 42.3479C46.9484 41.6446 45.9946 41.2495 45 41.2495Z" fill="white"/>
</svg>
