<svg width="44" height="40" viewBox="0 0 44 40" fill="none" xmlns="http://www.w3.org/2000/svg">
<path d="M2.60408 0.547425C1.8458 0.213801 0.960638 0.558053 0.627015 1.31633C0.293391 2.07461 0.637642 2.95977 1.39592 3.2934L2.60408 0.547425ZM36.7851 39.7694C37.5584 40.0666 38.4262 39.6806 38.7234 38.9074L43.5662 26.3059C43.8634 25.5326 43.4774 24.6648 42.7041 24.3676C41.9308 24.0704 41.063 24.4564 40.7659 25.2297L36.4612 36.431L25.2598 32.1263C24.4866 31.8291 23.6188 32.2151 23.3216 32.9884C23.0244 33.7617 23.4104 34.6295 24.1837 34.9266L36.7851 39.7694ZM1.39592 3.2934C11.9867 7.95306 18.7353 12.7164 23.7611 18.3276C28.8028 23.9566 32.1936 30.527 35.9527 38.9788L38.6938 37.7597C34.9128 29.2587 31.3677 22.3237 25.9958 16.3261C20.6079 10.3106 13.4649 5.32591 2.60408 0.547425L1.39592 3.2934Z" fill="white"/>
</svg>
