<svg width="26" height="26" viewBox="0 0 26 26" fill="none" xmlns="http://www.w3.org/2000/svg">
    <g clip-path="url(#clip0_289_1793)">
    <path d="M23.6093 9.74995H22.0421C21.919 9.74995 21.8182 9.8572 21.8182 9.98828V22.4105H3.45934V2.86717H17.4704C17.5936 2.86717 17.6943 2.75992 17.6943 2.62883V0.960501C17.6943 0.829418 17.5936 0.722168 17.4704 0.722168H2.33989C1.84454 0.722168 1.44434 1.14819 1.44434 1.6755C1.44434 1.6755 1.44434 23.0749 1.44434 23.6022C1.44434 24.1295 1.84454 24.5555 2.33989 24.5555H22.9377C23.433 24.5555 23.8332 24.1295 23.8332 23.6022V9.98828C23.8332 9.8572 23.7325 9.74995 23.6093 9.74995Z" fill="#8ED8F8"/>
    <path d="M13.6676 9.66307L13.5444 12.428C13.5362 12.635 13.6885 12.8095 13.883 12.8152L13.8917 12.8155L16.4726 12.8241C16.5164 12.8231 16.5606 12.8058 16.5922 12.7741L25.9665 3.3876C26.0364 3.31748 26.0399 3.19883 25.9743 3.12471L23.343 0.155058C23.3092 0.116802 23.2659 0.0992266 23.22 0.0978719C23.1741 0.0965171 23.1299 0.113839 23.0939 0.147703L13.7217 9.53427C13.6891 9.56848 13.6698 9.61448 13.6676 9.66307ZM15.0392 10.2531L23.1603 2.12189L24.1172 3.20029L15.9915 11.336L14.992 11.3321L15.0392 10.2531Z" fill="#8ED8F8"/>
    </g>
    <defs>
    <clipPath id="clip0_289_1793">
    <rect width="26" height="26" fill="white"/>
    </clipPath>
    </defs>
    </svg>
    