<svg width="25" height="25" viewBox="0 0 25 25" fill="none" xmlns="http://www.w3.org/2000/svg">
<path d="M14.5834 8.33341H4.86122C4.67704 8.33341 4.50041 8.26025 4.37018 8.13002C4.23994 7.99978 4.16678 7.82315 4.16678 7.63897V4.86119C4.16678 4.67701 4.23994 4.50038 4.37018 4.37015C4.50041 4.23991 4.67704 4.16675 4.86122 4.16675H14.5834C14.7676 4.16675 14.9443 4.23991 15.0745 4.37015C15.2047 4.50038 15.2779 4.67701 15.2779 4.86119V7.63897C15.2779 7.82315 15.2047 7.99978 15.0745 8.13002C14.9443 8.26025 14.7676 8.33341 14.5834 8.33341ZM5.55567 6.94453H13.889V5.51397H5.55567V6.94453Z" fill="black"/>
<path d="M14.5834 9.77808H4.86122C4.67704 9.77808 4.50041 9.85124 4.37018 9.98147C4.23994 10.1117 4.16678 10.2883 4.16678 10.4725V13.1947C4.16678 13.3789 4.23994 13.5556 4.37018 13.6858C4.50041 13.816 4.67704 13.8892 4.86122 13.8892H12.7501L15.2779 11.3197V10.4725C15.2779 10.2883 15.2047 10.1117 15.0745 9.98147C14.9443 9.85124 14.7676 9.77808 14.5834 9.77808ZM13.889 12.5003H5.55567V11.1114H13.889V12.5003Z" fill="black"/>
<path d="M7.6808 21.8822V21.8405L7.90302 20.8752H2.77802V2.77799H16.6669V9.89604L18.0558 8.58354V2.08354C18.0558 1.89937 17.9826 1.72273 17.8524 1.5925C17.7222 1.46226 17.5455 1.3891 17.3614 1.3891H2.08357C1.8994 1.3891 1.72276 1.46226 1.59253 1.5925C1.46229 1.72273 1.38913 1.89937 1.38913 2.08354V21.528C1.38913 21.7122 1.46229 21.8888 1.59253 22.019C1.72276 22.1493 1.8994 22.2224 2.08357 22.2224H7.63913C7.64485 22.1082 7.65878 21.9944 7.6808 21.8822V21.8822Z" fill="black"/>
<path d="M15.2778 13.3128L14.7361 13.8614C14.8705 13.8337 14.9937 13.7668 15.0901 13.6692C15.1865 13.5715 15.2518 13.4475 15.2778 13.3128Z" fill="black"/>
<path d="M4.16678 18.7085C4.16678 18.8927 4.23994 19.0693 4.37018 19.1996C4.50041 19.3298 4.67704 19.403 4.86122 19.403H8.22233L8.43067 18.5002L8.52095 18.1182V18.0835H5.55567V16.6668H9.95845L11.3473 15.278H4.86122C4.67704 15.278 4.50041 15.3511 4.37018 15.4814C4.23994 15.6116 4.16678 15.7882 4.16678 15.9724V18.7085Z" fill="black"/>
<path d="M23.2568 11.5767L20.9165 9.23639C20.8127 9.13225 20.6893 9.04962 20.5534 8.99324C20.4176 8.93686 20.2719 8.90784 20.1249 8.90784C19.9778 8.90784 19.8321 8.93686 19.6963 8.99324C19.5604 9.04962 19.437 9.13225 19.3332 9.23639L9.81236 18.8128L9.02763 22.1531C8.99825 22.2972 8.99759 22.4456 9.02569 22.59C9.05379 22.7344 9.11009 22.8718 9.19137 22.9943C9.27265 23.1169 9.37731 23.2222 9.49936 23.3043C9.62141 23.3863 9.75845 23.4435 9.90263 23.4725C9.97421 23.4797 10.0463 23.4797 10.1179 23.4725C10.203 23.4864 10.2898 23.4864 10.3749 23.4725L13.7429 22.7294L23.2568 13.1947C23.3607 13.0915 23.4432 12.9687 23.4995 12.8334C23.5558 12.6981 23.5848 12.553 23.5848 12.4065C23.5848 12.26 23.5558 12.1149 23.4995 11.9797C23.4432 11.8444 23.3607 11.7216 23.2568 11.6183V11.5767ZM13.0346 21.4656L10.4929 22.0281L11.111 19.5072L18.2499 12.2919L20.2082 14.2503L13.0346 21.4656ZM20.9929 13.4656L19.0346 11.5072L20.1387 10.4169L22.111 12.3892L20.9929 13.4656Z" fill="black"/>
</svg>
