<svg width="320" height="320" viewBox="0 0 320 320" fill="none" xmlns="http://www.w3.org/2000/svg">
    <path fill-rule="evenodd" clip-rule="evenodd" d="M160 320C248.366 320 320 248.366 320 160C320 71.6344 248.366 0 160 0C71.6344 0 0 71.6344 0 160C0 248.366 71.6344 320 160 320ZM96.6152 170.292C90.2405 132.806 115.461 97.25 152.946 90.8752C173.491 87.3814 193.433 93.3535 208.374 105.698C218.037 113.682 232.344 112.32 240.328 102.657C248.312 92.9931 246.951 78.6867 237.287 70.7024C212.603 50.3083 179.439 40.3237 145.336 46.1233C83.1345 56.7012 41.2853 115.701 51.8633 177.902C62.4412 240.104 121.441 281.953 183.642 271.375C184.946 271.153 186.242 270.91 187.528 270.646L184.002 245.043L159.558 227.436C128.634 225.241 102.044 202.214 96.6152 170.292ZM153.542 209.523C153.498 210.139 153.582 210.76 153.792 211.347C153.792 211.348 153.792 211.348 153.793 211.349C154.098 212.203 154.657 212.944 155.393 213.474L174.072 226.928L192.949 240.525L196.78 268.342L199.265 286.379C199.272 286.435 199.281 286.49 199.291 286.545C199.435 287.369 199.809 288.138 200.37 288.762C200.968 289.428 201.752 289.899 202.621 290.114L202.69 290.132C203.573 290.337 204.498 290.268 205.342 289.936C206.185 289.604 206.908 289.023 207.414 288.271C226.954 259.24 246.397 230.354 265.918 201.35C266.395 200.643 266.661 199.815 266.684 198.962C266.707 198.11 266.485 197.268 266.046 196.537C265.606 195.806 264.967 195.216 264.203 194.836C263.439 194.456 262.583 194.302 261.735 194.393L157.537 205.387C156.635 205.483 155.783 205.851 155.095 206.441C154.406 207.032 153.913 207.818 153.68 208.694L153.681 208.69C153.608 208.964 153.562 209.243 153.542 209.523Z" fill="#191919"/>
    </svg>
    