<svg width="18" height="18" viewBox="0 0 18 18" fill="#B6E802" xmlns="http://www.w3.org/2000/svg">
    <g clip-path="url(#clip0_805_1357)">
    <path d="M8.38495 6.31005L8.08495 6.01005C7.61746 5.54004 6.98244 5.27495 6.31952 5.27307C5.65661 5.2712 5.0201 5.53269 4.54995 6.00005L1.91995 8.64505C1.45128 9.11387 1.18799 9.74964 1.18799 10.4125C1.18799 11.0755 1.45128 11.7112 1.91995 12.18L6.19496 16.455C6.66377 16.9237 7.29955 17.187 7.96246 17.187C8.62537 17.187 9.26114 16.9237 9.72995 16.455L12.36 13.825C12.8286 13.3562 13.0919 12.7205 13.0919 12.0575C13.0919 11.3946 12.8286 10.7589 12.36 10.29L12.135 10.065L13.235 9.01505L13.235 7.29505L14.735 7.29505L14.735 5.45004L15.55 5.45004L17 4.00005L17 1.00005L13.725 1.00005L8.38495 6.31005ZM5.08995 10.59L7.81996 13.315C7.91308 13.4087 7.96535 13.5355 7.96535 13.6675C7.96535 13.7996 7.91308 13.9264 7.81996 14.02L7.61995 14.22C7.52627 14.3132 7.39955 14.3654 7.26745 14.3654C7.13536 14.3654 7.00864 14.3132 6.91495 14.22L4.17995 11.5C4.08683 11.4064 4.03456 11.2796 4.03456 11.1475C4.03456 11.0155 4.08683 10.8887 4.17995 10.795L4.37995 10.595C4.42611 10.5479 4.48114 10.5103 4.54189 10.4845C4.60265 10.4586 4.66791 10.4451 4.73391 10.4446C4.79992 10.4442 4.86536 10.4568 4.92647 10.4817C4.98758 10.5067 5.04314 10.5435 5.08995 10.59ZM16 2.00005L16 3.57004L15.12 4.45505L13.72 4.45505L13.72 6.29505L12.22 6.29505L12.22 8.60005L11.415 9.36004L9.08995 7.00005L14.14 2.00005L16 2.00005Z" fill="#B6E802"/>
    <path d="M1 1L17 17" stroke="#212121" stroke-width="3"/>
    <path d="M1 1L17 17" stroke="#B6E802"/>
    </g>
    <defs>
    <clipPath id="clip0_805_1357">
    <rect width="18" height="18" fill="white" transform="translate(0 18) rotate(-90)"/>
    </clipPath>
    </defs>
    </svg>
    