<svg width="320" height="320" viewBox="0 0 320 320" fill="none" xmlns="http://www.w3.org/2000/svg">
    <circle cx="160" cy="160" r="160" fill="#191919"/>
    <path fill-rule="evenodd" clip-rule="evenodd" d="M152.946 90.8752C115.461 97.25 90.2405 132.806 96.6152 170.292C102.99 207.777 138.546 232.998 176.032 226.623C186.514 224.84 195.981 220.801 204.073 215.106C214.325 207.891 228.483 210.353 235.698 220.604C242.912 230.856 240.45 245.014 230.199 252.229C216.697 261.731 200.927 268.435 183.642 271.375C121.441 281.953 62.4412 240.104 51.8633 177.902C41.2853 115.701 83.1345 56.7012 145.336 46.1233C179.439 40.3237 212.603 50.3083 237.287 70.7024C246.951 78.6867 248.312 92.9931 240.328 102.657C232.344 112.32 218.037 113.682 208.374 105.698C193.433 93.3535 173.491 87.3814 152.946 90.8752Z" fill="url(#paint0_angular_1907_3326)"/>
    <path d="M144.734 213.208C144.501 214.085 144.54 215.012 144.846 215.867C145.151 216.721 145.71 217.462 146.446 217.992L184.002 245.043L190.318 290.898C190.439 291.784 190.824 292.614 191.423 293.28C192.021 293.946 192.805 294.417 193.674 294.633L193.743 294.65C194.626 294.855 195.551 294.787 196.395 294.454C197.238 294.122 197.961 293.542 198.467 292.79L256.971 205.868C257.449 205.162 257.714 204.333 257.737 203.481C257.76 202.628 257.538 201.786 257.099 201.055C256.659 200.324 256.02 199.734 255.256 199.354C254.492 198.974 253.636 198.821 252.788 198.911L148.59 209.905C147.688 210.001 146.836 210.369 146.148 210.96C145.459 211.55 144.966 212.336 144.733 213.213L144.734 213.208Z" fill="#191919"/>
    <path d="M153.681 208.69C153.448 209.567 153.487 210.494 153.793 211.348C154.098 212.203 154.657 212.944 155.393 213.474L192.949 240.524L199.265 286.379C199.386 287.266 199.771 288.096 200.37 288.762C200.968 289.427 201.752 289.899 202.621 290.114L202.69 290.132C203.573 290.336 204.498 290.268 205.342 289.936C206.185 289.604 206.908 289.023 207.414 288.271L265.918 201.35C266.396 200.643 266.661 199.815 266.684 198.962C266.707 198.109 266.485 197.268 266.046 196.537C265.606 195.806 264.967 195.216 264.203 194.836C263.439 194.456 262.583 194.302 261.735 194.393L157.537 205.387C156.635 205.483 155.783 205.85 155.095 206.441C154.406 207.032 153.913 207.817 153.68 208.694L153.681 208.69Z" fill="#3B12CF"/>
    <defs>
    <radialGradient id="paint0_angular_1907_3326" cx="0" cy="0" r="1" gradientUnits="userSpaceOnUse" gradientTransform="translate(153.545 160.61) rotate(80.3486) scale(91.5455 80.4444)">
    <stop offset="0.760176" stop-color="#8ED8F8"/>
    <stop offset="0.92233" stop-color="#4218D9"/>
    </radialGradient>
    </defs>
    </svg>
    