<svg width="31" height="30" viewBox="0 0 31 30" fill="none" xmlns="http://www.w3.org/2000/svg">
<path d="M25.299 8.77922C26.276 7.80222 26.276 6.22022 25.299 5.24422C24.323 4.26722 22.74 4.26722 21.764 5.24422C20.787 6.22122 20.787 7.80322 21.764 8.77922C22.74 9.75622 24.323 9.75622 25.299 8.77922ZM19.531 15.4802H23.033C23.416 15.6982 23.905 15.6622 24.232 15.3382L27.771 11.8332C27.813 11.7912 27.832 11.7382 27.865 11.6922C27.949 11.6172 28.044 11.5622 28.125 11.4822C30.666 8.96522 30.666 4.88422 28.125 2.36822C25.584 -0.148781 21.464 -0.148781 18.923 2.36822C16.382 4.88522 16.382 8.96622 18.923 11.4822C19.004 11.5622 19.099 11.6172 19.183 11.6922C19.216 11.7382 19.235 11.7912 19.277 11.8332L20.972 13.5122H19.468V13.5492C17.012 13.5842 15.03 15.5792 15.03 18.0432C15.03 20.5282 17.045 22.4812 19.53 22.4812H23.53C24.911 22.4812 26.03 23.6312 26.03 25.0122C26.03 26.3932 24.911 27.5122 23.53 27.5122H8.99299L10.754 25.7682C10.796 25.7262 10.815 25.6742 10.848 25.6272C10.932 25.5522 11.027 25.4972 11.108 25.4172C13.649 22.9002 13.649 18.8192 11.108 16.3032C8.56699 13.7862 4.44699 13.7862 1.90599 16.3032C-0.635006 18.8202 -0.635006 22.9012 1.90599 25.4172C1.98699 25.4972 2.08199 25.5522 2.16599 25.6272C2.19899 25.6742 2.21799 25.7262 2.25999 25.7682L5.79899 29.2732C6.06399 29.5362 6.43699 29.6052 6.77399 29.5122H23.594V29.5062C26.05 29.4712 28.032 27.4762 28.032 25.0122C28.032 22.5642 26.075 20.5822 23.641 20.5232V20.5122L19.407 20.5312C18.086 20.4642 17.032 19.3812 17.032 18.0442C17.031 16.6622 18.15 15.4802 19.531 15.4802ZM20.349 10.0902L20.35 10.0892C20.347 10.0852 20.343 10.0832 20.339 10.0802C18.58 8.33822 18.58 5.51322 20.339 3.77022C22.098 2.02822 24.95 2.02822 26.71 3.77022C28.469 5.51222 28.469 8.33722 26.71 10.0802C26.699 10.0912 26.686 10.0972 26.674 10.1082L26.677 10.1122L23.524 13.2342L20.349 10.0902ZM6.50699 27.1702L3.33199 24.0242C3.32899 24.0212 3.32499 24.0172 3.32099 24.0142C1.56199 22.2722 1.56199 19.4472 3.32099 17.7042C5.07999 15.9622 7.93199 15.9622 9.69199 17.7042C11.451 19.4462 11.451 22.2712 9.69199 24.0142C9.68099 24.0252 9.66799 24.0322 9.65599 24.0432L9.65899 24.0462L6.50699 27.1702ZM4.76399 19.2442C3.78699 20.2212 3.78699 21.8032 4.76399 22.7792C5.73999 23.7562 7.32299 23.7562 8.29899 22.7792C9.27599 21.8022 9.27599 20.2202 8.29899 19.2442C7.32299 18.2682 5.73999 18.2682 4.76399 19.2442Z" fill="black"/>
</svg>
