<svg width="31" height="31" viewBox="0 0 31 31" fill="none" xmlns="http://www.w3.org/2000/svg">
<path d="M19.375 15.5C18.3033 15.5 17.4375 16.3658 17.4375 17.4375C17.4375 18.5092 18.3033 19.375 19.375 19.375H25.1875C28.3965 19.375 31 21.924 31 25.1875C31 28.3965 28.3965 31 25.1875 31H8.45234C8.9791 30.4006 9.6209 29.6316 10.2688 28.7719C10.6502 28.2633 11.0438 27.7062 11.4191 27.125H25.1875C26.2592 27.125 27.125 26.2592 27.125 25.1875C27.125 24.1158 26.2592 23.25 25.1875 23.25H19.375C16.1115 23.25 13.508 20.6465 13.508 17.4375C13.508 14.174 16.1115 11.625 19.375 11.625H21.924C20.598 9.77832 19.375 7.59258 19.375 5.8125C19.375 2.6023 21.924 0 25.1875 0C28.3965 0 31 2.6023 31 5.8125C31 9.6875 25.1875 15.5 25.1875 15.5H19.375ZM25.1875 7.75C26.2592 7.75 27.125 6.88418 27.125 5.8125C27.125 4.74264 26.2592 3.875 25.1875 3.875C24.1158 3.875 23.25 4.74264 23.25 5.8125C23.25 6.88418 24.1158 7.75 25.1875 7.75ZM7.1627 29.5348C7.15059 29.5469 7.13848 29.559 7.12637 29.5711C6.86602 29.8738 6.62988 30.1342 6.43613 30.3461C6.41191 30.3703 6.3877 30.3945 6.36953 30.4187C6.02441 30.7881 5.8125 31 5.8125 31C5.8125 31 0 25.1875 0 21.3125C0 18.049 2.6023 15.4455 5.8125 15.4455C9.02148 15.4455 11.625 18.049 11.625 21.3125C11.625 23.0926 10.402 25.2783 9.07598 27.125C8.36152 28.0453 7.73184 28.8748 7.1627 29.5348ZM5.75801 23.25C6.88418 23.25 7.69551 22.3842 7.69551 21.3125C7.69551 20.2408 6.88418 19.375 5.75801 19.375C4.74264 19.375 3.82051 20.2408 3.82051 21.3125C3.82051 22.3842 4.74264 23.25 5.75801 23.25Z" fill="white"/>
</svg>
